<svg width="1110" height="110" viewBox="0 0 1110 110" fill="none" xmlns="http://www.w3.org/2000/svg">
<g clip-path="url(#clip0_1_2258)">
<path fill-rule="evenodd" clip-rule="evenodd" d="M1110 1H0V0H1110V1Z" fill="url(#paint0_linear_1_2258)"/>
<g clip-path="url(#clip1_1_2258)">
<g clip-path="url(#clip2_1_2258)">
<path d="M135.3 60.8443C135.158 60.5031 135.026 60.1443 134.885 59.8381L134.232 58.3768L134.205 58.3506C132.264 54.1506 130.191 49.8806 127.994 45.6806L127.905 45.5056C127.685 45.0943 127.464 44.6393 127.235 44.2193C126.953 43.7206 126.679 43.1868 126.229 42.6793C125.79 42.1483 125.238 41.7205 124.613 41.4267C123.987 41.133 123.304 40.9806 122.611 40.9806C121.919 40.9806 121.236 41.133 120.61 41.4267C119.984 41.7205 119.432 42.1483 118.994 42.6793C118.579 43.1868 118.27 43.7206 117.988 44.2193C117.767 44.6743 117.547 45.1206 117.317 45.5318L117.229 45.7068C115.067 49.9068 112.958 54.1768 111.017 58.3768L110.964 58.4293C110.77 58.8843 110.541 59.3568 110.32 59.8643C110.179 60.1706 110.038 60.5031 109.897 60.8706C109.515 61.8329 109.394 62.8771 109.543 63.9003C109.693 64.9234 110.109 65.8903 110.75 66.7054C111.392 67.5206 112.236 68.1561 113.2 68.5491C114.165 68.9421 115.216 69.0792 116.25 68.9468C117.241 68.8174 118.195 68.49 119.055 67.9843C120.203 67.3456 121.305 66.4181 122.541 65.0793C123.776 66.4181 124.905 67.3456 126.026 67.9931C127.104 68.6203 128.324 68.9665 129.573 68.9993C131.02 69.0053 132.419 68.4921 133.514 67.5545C134.609 66.6168 135.324 65.3181 135.529 63.8981C135.765 62.8776 135.685 61.8102 135.3 60.8356V60.8443ZM122.629 62.2968C121.111 60.3718 120.123 58.6043 119.788 57.0906C119.649 56.5297 119.619 55.9476 119.7 55.3756C119.761 54.9293 119.929 54.5356 120.158 54.2031C120.688 53.4418 121.614 52.9693 122.629 52.9693C123.111 52.9547 123.589 53.059 124.02 53.2728C124.451 53.4866 124.822 53.8033 125.1 54.1943C125.329 54.5443 125.497 54.9293 125.55 55.3756C125.638 55.8831 125.603 56.4693 125.461 57.0906C125.126 58.5781 124.138 60.3631 122.629 62.2968ZM133.87 63.5918C133.77 64.3128 133.481 64.9951 133.032 65.5708C132.583 66.1465 131.99 66.5955 131.311 66.8731C130.641 67.1531 129.9 67.2318 129.176 67.1531C128.47 67.0656 127.764 66.8381 127.041 66.4181C125.839 65.6818 124.759 64.767 123.838 63.7056C125.691 61.4306 126.811 59.3568 127.235 57.5106C127.438 56.6356 127.464 55.8481 127.376 55.1218C127.266 54.4335 127.007 53.7768 126.617 53.1968C126.172 52.5679 125.578 52.0571 124.887 51.7092C124.196 51.3614 123.43 51.1871 122.655 51.2018C121.023 51.2018 119.567 51.9543 118.685 53.1881C118.288 53.7666 118.031 54.4285 117.935 55.1218C117.82 55.8568 117.847 56.6706 118.076 57.5106C118.5 59.3568 119.647 61.4568 121.473 63.7231C120.567 64.8047 119.485 65.7276 118.27 66.4531C117.538 66.8731 116.841 67.0918 116.135 67.1793C115.037 67.3188 113.928 67.0229 113.049 66.3561C112.17 65.6892 111.592 64.7053 111.441 63.6181C111.353 62.9181 111.414 62.2181 111.697 61.4306C111.785 61.1506 111.917 60.8706 112.058 60.5381C112.253 60.0831 112.482 59.6106 112.703 59.1381L112.738 59.0768C114.644 54.9031 116.726 50.6418 118.888 46.4681L118.976 46.2931C119.197 45.8731 119.417 45.4268 119.647 45.0068C119.876 44.5606 120.123 44.1318 120.441 43.7818C120.716 43.4564 121.059 43.1946 121.447 43.015C121.835 42.8354 122.258 42.7423 122.686 42.7423C123.114 42.7423 123.537 42.8354 123.925 43.015C124.313 43.1946 124.657 43.4564 124.932 43.7818C125.241 44.1318 125.497 44.5606 125.726 45.0068C125.947 45.4268 126.167 45.8818 126.397 46.2931L126.485 46.4681C128.638 50.6418 130.72 54.9031 132.661 59.0768L132.688 59.1031C132.917 59.5581 133.111 60.0656 133.332 60.5031C133.473 60.8443 133.614 61.1156 133.703 61.4043C133.87 62.1918 133.958 62.8918 133.87 63.5918ZM146.153 62.1043C145.488 62.114 144.829 61.9751 144.226 61.6979C143.622 61.4207 143.09 61.0123 142.667 60.5031C141.718 59.4181 141.214 58.019 141.255 56.5831C141.241 55.1159 141.761 53.6928 142.72 52.5756C143.164 52.0599 143.716 51.6469 144.338 51.3657C144.96 51.0845 145.637 50.942 146.32 50.9481C146.963 50.9306 147.6 51.0757 148.172 51.3696C148.743 51.6634 149.229 52.0965 149.585 52.6281L149.673 51.2543H152.25V61.8243H149.664L149.576 60.2843C149.209 60.8519 148.702 61.3171 148.103 61.6356C147.504 61.9541 146.832 62.1155 146.153 62.1043ZM146.823 59.5843C147.335 59.5843 147.785 59.4443 148.208 59.1906C148.597 58.9106 148.914 58.5431 149.161 58.0968C149.382 57.6506 149.497 57.1168 149.497 56.5218C149.531 56.0051 149.43 55.4883 149.202 55.022C148.975 54.5558 148.629 54.156 148.2 53.8618C147.787 53.6067 147.31 53.4714 146.823 53.4714C146.336 53.4714 145.86 53.6067 145.447 53.8618C145.058 54.1418 144.741 54.5093 144.494 54.9556C144.26 55.4477 144.146 55.9869 144.158 56.5306C144.124 57.0474 144.225 57.5642 144.453 58.0304C144.68 58.4967 145.026 58.8964 145.455 59.1906C145.87 59.4443 146.32 59.5843 146.823 59.5843ZM156.661 48.4018C156.661 48.7081 156.608 48.9881 156.467 49.2156C156.326 49.4343 156.132 49.6356 155.876 49.7756C155.62 49.9156 155.347 49.9681 155.064 49.9681C154.782 49.9681 154.5 49.9156 154.244 49.7756C154.002 49.642 153.798 49.4492 153.653 49.2156C153.516 48.9663 153.449 48.6854 153.458 48.4018C153.458 48.0868 153.52 47.8068 153.653 47.5881C153.794 47.3256 153.997 47.1681 154.244 47.0281C154.5 46.8881 154.773 46.8268 155.064 46.8268C155.345 46.8204 155.623 46.8864 155.87 47.0183C156.118 47.1502 156.326 47.3435 156.476 47.5793C156.604 47.8344 156.668 48.1168 156.661 48.4018ZM153.661 61.7893V51.2368H156.467V61.8068H153.653L153.661 61.7893ZM163.967 54.0018V54.0368C163.835 53.9756 163.658 53.9493 163.526 53.9231C163.35 53.8881 163.208 53.8881 163.041 53.8881C162.255 53.8881 161.664 54.1156 161.276 54.5881C160.853 55.0693 160.658 55.7431 160.658 56.6093V61.7981H157.844V51.2281H160.429L160.517 52.8293C160.8 52.2693 161.135 51.8493 161.611 51.5343C162.085 51.2283 162.643 51.0754 163.208 51.0968C163.411 51.0968 163.605 51.1143 163.773 51.1493C163.861 51.1756 163.914 51.1756 163.967 51.2018V54.0018ZM165.097 61.7893V46.8968H167.903V52.5843C168.3 52.0768 168.75 51.6831 169.314 51.3768C170.208 50.9422 171.224 50.8189 172.197 51.0268C173.171 51.2348 174.045 51.7619 174.679 52.5231C175.63 53.6104 176.134 55.0129 176.091 56.4518C176.105 57.919 175.585 59.3421 174.626 60.4593C174.182 60.975 173.63 61.388 173.008 61.6692C172.386 61.9504 171.71 62.093 171.026 62.0868C170.383 62.1043 169.746 61.9593 169.175 61.6654C168.604 61.3715 168.117 60.9384 167.761 60.4068L167.673 61.7806L165.097 61.8068V61.7893ZM170.523 59.5843C171.026 59.5843 171.476 59.4443 171.9 59.1906C172.288 58.9106 172.605 58.5431 172.853 58.0968C173.082 57.6506 173.188 57.1168 173.188 56.5218C173.188 55.9356 173.082 55.4018 172.853 54.9556C172.621 54.5253 172.295 54.1516 171.9 53.8618C171.487 53.6067 171.01 53.4714 170.523 53.4714C170.036 53.4714 169.56 53.6067 169.147 53.8618C168.75 54.1418 168.441 54.5093 168.185 54.9556C167.952 55.4477 167.837 55.9869 167.85 56.5306C167.815 57.0474 167.917 57.5642 168.144 58.0304C168.371 58.4967 168.717 58.8964 169.147 59.1906C169.561 59.4443 170.011 59.5843 170.523 59.5843ZM177.15 61.7981V51.2281H179.735L179.823 52.6018C180.148 52.0753 180.609 51.6443 181.158 51.3536C181.707 51.0628 182.325 50.9228 182.947 50.9481C183.658 50.9359 184.357 51.1319 184.956 51.5117C185.556 51.8914 186.029 52.438 186.317 53.0831C186.626 53.7481 186.794 54.5706 186.794 55.4893V61.8243H183.979V55.8568C183.979 55.1218 183.811 54.5443 183.476 54.1156C183.141 53.6956 182.682 53.4681 182.1 53.4681C181.676 53.4681 181.305 53.5556 180.979 53.7481C180.67 53.9493 180.414 54.2031 180.22 54.5618C180.024 54.9245 179.927 55.3317 179.938 55.7431V61.7981H177.15ZM188.197 61.7981V46.8881H191.011V52.5756C191.393 52.0653 191.889 51.6501 192.46 51.363C193.031 51.0759 193.662 50.9249 194.303 50.9218C194.967 50.9122 195.626 51.0511 196.229 51.3283C196.833 51.6055 197.365 52.0139 197.788 52.5231C198.732 53.6103 199.233 55.0086 199.191 56.4431C199.206 57.9104 198.686 59.3338 197.726 60.4506C197.282 60.9663 196.73 61.3793 196.108 61.6605C195.486 61.9417 194.81 62.0842 194.126 62.0781C193.483 62.0955 192.846 61.9505 192.275 61.6566C191.704 61.3627 191.217 60.9297 190.861 60.3981L190.782 61.7718L188.197 61.7981ZM193.65 59.5843C194.161 59.5843 194.611 59.4443 195.026 59.1906C195.423 58.9106 195.732 58.5431 195.988 58.0968C196.208 57.6506 196.323 57.1168 196.323 56.5218C196.357 56.0051 196.256 55.4883 196.029 55.022C195.801 54.5558 195.456 54.156 195.026 53.8618C194.613 53.6067 194.136 53.4714 193.65 53.4714C193.163 53.4714 192.686 53.6067 192.273 53.8618C191.885 54.1418 191.567 54.5093 191.32 54.9556C191.074 55.4433 190.958 55.9858 190.985 56.5306C190.95 57.0474 191.052 57.5642 191.279 58.0304C191.507 58.4967 191.852 58.8964 192.282 59.1906C192.697 59.4443 193.12 59.5843 193.65 59.5843Z" fill="#FF385C"/>
</g>
<g clip-path="url(#clip3_1_2258)">
<path d="M272.597 46.9728V53.7425H266.428V46.9728H263.5V63.1328H266.428V56.5829H272.597V63.1328H275.525V46.9728H272.597Z" fill="#33475B"/>
<path d="M284.897 57.909C284.897 58.5567 284.642 59.1778 284.188 59.6357C283.733 60.0937 283.117 60.351 282.475 60.351C281.832 60.351 281.216 60.0937 280.762 59.6357C280.307 59.1778 280.052 58.5567 280.052 57.909V50.9874H277.274V57.909C277.274 59.2979 277.822 60.6299 278.796 61.612C279.77 62.5941 281.092 63.1458 282.47 63.1458C283.848 63.1458 285.169 62.5941 286.143 61.612C287.118 60.6299 287.665 59.2979 287.665 57.909V50.9874H284.897V57.909Z" fill="#33475B"/>
<path d="M305.479 51.7005C305.479 50.2817 306.41 49.832 307.43 49.832C308.252 49.832 309.338 50.4625 310.048 51.2276L311.868 49.0669C310.96 47.8289 309.117 46.9728 307.609 46.9728C304.596 46.9728 302.417 48.7516 302.417 51.7005C302.417 57.1715 309.051 55.4361 309.051 58.4977C309.051 59.4421 308.142 60.2765 307.1 60.2765C305.457 60.2765 304.925 59.4667 304.17 58.6105L302.151 60.7263C303.443 62.3244 305.035 63.1357 306.944 63.1357C309.806 63.1357 312.109 61.3352 312.109 58.5208C312.109 52.4467 305.474 54.334 305.474 51.7005" fill="#33475B"/>
<path d="M346.523 60.5513C344.881 60.5513 344.415 59.8354 344.415 58.7392V53.8871H346.966V51.4286H344.415V48.1847L341.599 49.4588V59.3423C341.599 61.8703 343.329 63.1444 345.702 63.1444C346.074 63.1512 346.446 63.1212 346.813 63.0547L347.5 60.505C347.19 60.5267 346.834 60.5484 346.523 60.5484" fill="#33475B"/>
<path d="M295.471 51.0685C294.095 51.0685 293.135 51.4705 292.206 52.3889V47.0697H289.424V56.9286C289.424 60.6193 292.072 63.1473 295.046 63.1473C298.346 63.1473 301.249 60.5745 301.249 57.1094C301.249 53.6876 298.577 51.0699 295.471 51.0699V51.0685ZM295.453 60.3257C294.829 60.3257 294.219 60.1391 293.7 59.7895C293.181 59.4399 292.776 58.943 292.537 58.3616C292.298 57.7803 292.236 57.1405 292.357 56.5233C292.479 55.9062 292.78 55.3392 293.221 54.8943C293.663 54.4493 294.225 54.1463 294.838 54.0235C295.45 53.9007 296.085 53.9638 296.661 54.2046C297.238 54.4454 297.731 54.8532 298.078 55.3764C298.425 55.8996 298.61 56.5148 298.61 57.1441C298.61 57.9879 298.277 58.7972 297.685 59.3938C297.093 59.9905 296.291 60.3257 295.453 60.3257Z" fill="#33475B"/>
<path d="M325.679 56.9618C325.679 53.4909 322.782 50.9238 319.476 50.9238C316.502 50.9238 313.855 53.4518 313.855 57.1426V67.0072H316.637V61.6808C317.564 62.5977 318.525 63.0012 319.9 63.0012C323.006 63.0012 325.678 60.385 325.678 56.9618H325.679ZM323.045 56.9271C323.045 57.5564 322.86 58.1715 322.513 58.6947C322.166 59.2179 321.673 59.6258 321.096 59.8666C320.519 60.1074 319.885 60.1704 319.272 60.0476C318.66 59.9249 318.098 59.6218 317.656 59.1769C317.215 58.7319 316.914 58.165 316.792 57.5478C316.671 56.9306 316.733 56.2909 316.972 55.7095C317.211 55.1281 317.615 54.6312 318.135 54.2816C318.654 53.932 319.264 53.7454 319.888 53.7454C320.725 53.7454 321.528 54.0806 322.12 54.6773C322.712 55.274 323.045 56.0832 323.045 56.9271Z" fill="#33475B"/>
<path d="M334.667 50.7879V47.9706C335.036 47.7967 335.349 47.5205 335.569 47.1744C335.789 46.8282 335.906 46.4263 335.908 46.0153V45.9503C335.908 45.3749 335.681 44.8231 335.278 44.4163C334.874 44.0095 334.327 43.7809 333.756 43.7809H333.691C333.121 43.7809 332.573 44.0095 332.17 44.4163C331.766 44.8231 331.539 45.3749 331.539 45.9503V46.0153C331.541 46.4263 331.659 46.8282 331.878 47.1744C332.098 47.5205 332.411 47.7967 332.78 47.9706V50.7879C331.719 50.9516 330.719 51.3951 329.882 52.0736L322.217 46.0558C322.271 45.8574 322.3 45.6528 322.303 45.447C322.304 44.9635 322.163 44.4907 321.897 44.0882C321.631 43.6858 321.253 43.3718 320.81 43.1861C320.367 43.0004 319.88 42.9512 319.409 43.0448C318.938 43.1383 318.506 43.3705 318.166 43.7118C317.827 44.0532 317.595 44.4884 317.501 44.9625C317.407 45.4365 317.454 45.9281 317.637 46.375C317.82 46.8219 318.13 47.204 318.529 47.4731C318.927 47.7422 319.396 47.8862 319.876 47.8868C320.295 47.8849 320.707 47.7722 321.069 47.5599L328.618 53.4793C327.94 54.5118 327.586 55.7264 327.602 56.9647C327.619 58.203 328.005 59.4075 328.711 60.4211L326.415 62.7351C326.23 62.6753 326.036 62.6436 325.841 62.6411C325.448 62.6414 325.063 62.7593 324.736 62.98C324.408 63.2007 324.153 63.5142 324.003 63.8809C323.852 64.2477 323.813 64.6511 323.89 65.0404C323.967 65.4296 324.156 65.7872 324.435 66.0678C324.713 66.3485 325.068 66.5396 325.454 66.6171C325.84 66.6946 326.241 66.655 326.604 66.5033C326.968 66.3515 327.279 66.0944 327.498 65.7646C327.717 65.4347 327.834 65.0468 327.834 64.6499C327.832 64.4534 327.801 64.2585 327.741 64.0714L330.013 61.782C330.753 62.3565 331.614 62.7525 332.53 62.9397C333.446 63.1268 334.392 63.1003 335.297 62.8619C336.201 62.6236 337.039 62.1799 337.746 61.5647C338.454 60.9495 339.013 60.1793 339.38 59.3129C339.746 58.4465 339.912 57.507 339.863 56.5664C339.813 55.6257 339.552 54.7088 339.097 53.886C338.642 53.0631 338.006 52.3561 337.238 51.8191C336.471 51.2821 335.591 50.9294 334.667 50.7879ZM333.726 60.0523C333.105 60.0518 332.497 59.8656 331.981 59.5173C331.465 59.169 331.062 58.6742 330.825 58.0955C330.588 57.5168 330.526 56.8801 330.647 56.266C330.769 55.6518 331.068 55.0878 331.507 54.6451C331.947 54.2023 332.506 53.9009 333.116 53.7787C333.725 53.6566 334.357 53.7193 334.931 53.9589C335.505 54.1984 335.996 54.6042 336.341 55.1248C336.686 55.6454 336.871 56.2574 336.871 56.8837C336.871 57.7237 336.54 58.5293 335.951 59.1232C335.361 59.7172 334.562 60.0509 333.729 60.0509" fill="#FF7A59"/>
</g>
<g clip-path="url(#clip4_1_2258)">
<path d="M447.246 55.3591C447.246 59.2456 444.161 62.1095 440.375 62.1095C436.589 62.1095 433.504 59.2456 433.504 55.3591C433.504 51.4452 436.589 48.6086 440.375 48.6086C444.161 48.6086 447.246 51.4452 447.246 55.3591ZM444.238 55.3591C444.238 52.9304 442.45 51.2686 440.375 51.2686C438.3 51.2686 436.512 52.9304 436.512 55.3591C436.512 57.7634 438.3 59.4495 440.375 59.4495C442.45 59.4495 444.238 57.7604 444.238 55.3591Z" fill="#EA4335"/>
<path d="M462.07 55.3591C462.07 59.2456 458.985 62.1095 455.198 62.1095C451.412 62.1095 448.327 59.2456 448.327 55.3591C448.327 51.4482 451.412 48.6086 455.198 48.6086C458.985 48.6086 462.07 51.4452 462.07 55.3591ZM459.062 55.3591C459.062 52.9304 457.274 51.2686 455.198 51.2686C453.123 51.2686 451.335 52.9304 451.335 55.3591C451.335 57.7634 453.123 59.4495 455.198 59.4495C457.274 59.4495 459.062 57.7604 459.062 55.3591Z" fill="#FBBC05"/>
<path d="M476.276 49.0165V61.1356C476.276 66.1208 473.292 68.1569 469.766 68.1569C466.446 68.1569 464.448 65.9686 463.694 64.1791L466.313 63.1047C466.779 64.2034 467.922 65.4999 469.763 65.4999C472.02 65.4999 473.419 64.1273 473.419 61.5434V60.5726H473.314C472.641 61.3912 471.344 62.1065 469.707 62.1065C466.282 62.1065 463.144 59.1665 463.144 55.3834C463.144 51.573 466.282 48.6086 469.707 48.6086C471.341 48.6086 472.638 49.3239 473.314 50.1182H473.419V49.0195H476.276V49.0165ZM473.632 55.3834C473.632 53.0065 472.023 51.2686 469.976 51.2686C467.9 51.2686 466.162 53.0065 466.162 55.3834C466.162 57.736 467.9 59.4495 469.976 59.4495C472.023 59.4495 473.632 57.736 473.632 55.3834Z" fill="#4285F4"/>
<path d="M480.985 41.9131V61.6957H478.052V41.9131H480.985Z" fill="#34A853"/>
<path d="M492.418 57.5809L494.753 59.1148C493.999 60.2135 492.183 62.1066 489.046 62.1066C485.155 62.1066 482.248 59.1422 482.248 55.3561C482.248 51.3418 485.179 48.6057 488.709 48.6057C492.264 48.6057 494.002 51.3935 494.571 52.9001L494.882 53.667L485.726 57.4044C486.427 58.7588 487.517 59.4496 489.046 59.4496C490.577 59.4496 491.64 58.707 492.418 57.5809ZM485.232 55.1522L491.353 52.6475C491.016 51.8044 490.003 51.217 488.811 51.217C487.282 51.217 485.155 52.547 485.232 55.1522Z" fill="#EA4335"/>
<path d="M422.398 53.6031V50.7392H432.191C432.287 51.2383 432.336 51.8287 432.336 52.4678C432.336 54.6165 431.74 57.2735 429.82 59.1665C427.951 61.0839 425.564 62.1065 422.402 62.1065C416.54 62.1065 411.611 57.4013 411.611 51.6248C411.611 45.8483 416.54 41.1431 422.402 41.1431C425.644 41.1431 427.954 42.397 429.69 44.0313L427.639 46.0522C426.395 44.9018 424.708 44.007 422.398 44.007C418.118 44.007 414.771 47.4065 414.771 51.6248C414.771 55.8431 418.118 59.2426 422.398 59.2426C425.175 59.2426 426.756 58.1439 427.769 57.1457C428.59 56.3361 429.131 55.1796 429.344 53.6L422.398 53.6031Z" fill="#4285F4"/>
</g>
<g clip-path="url(#clip5_1_2258)">
<path d="M602.564 56.9752L601.836 59.031H601.776C601.655 58.5674 601.432 57.862 601.069 57.0155L597.171 47.2403H593.353V62.8201H595.878V53.2062C595.878 52.6015 595.878 51.9163 595.858 51.0698C595.837 50.6465 595.797 50.324 595.777 50.0822H595.837C595.959 50.6868 596.1 51.1302 596.201 51.4124L600.887 62.7798H602.665L607.31 51.3116C607.411 51.0496 607.512 50.5256 607.613 50.0822H607.674C607.613 51.231 607.573 52.2589 607.553 52.8837V62.7597H610.239V47.2H606.563L602.564 56.9752ZM612.784 51.5938H615.41V62.7597H612.784V51.5938ZM614.117 46.8775C613.673 46.8775 613.309 47.0387 613.006 47.3209C612.703 47.6031 612.542 47.9659 612.542 48.4093C612.542 48.8325 612.703 49.1953 613.006 49.4775C613.309 49.7597 613.673 49.9008 614.117 49.9008C614.562 49.9008 614.945 49.7395 615.228 49.4775C615.531 49.1953 615.693 48.8325 615.693 48.4093C615.693 47.986 615.531 47.6232 615.228 47.3209C614.966 47.0387 614.582 46.8775 614.117 46.8775ZM624.722 51.493C624.237 51.3922 623.732 51.3318 623.247 51.3318C622.055 51.3318 620.965 51.5938 620.056 52.1178C619.147 52.6418 618.42 53.3674 617.955 54.2744C617.47 55.2015 617.228 56.2698 617.228 57.4992C617.228 58.5674 617.47 59.5147 617.935 60.3814C618.399 61.2279 619.046 61.9132 619.914 62.3767C620.742 62.8403 621.712 63.0822 622.803 63.0822C624.055 63.0822 625.125 62.8201 625.974 62.3364L625.994 62.3163V59.8977L625.893 59.9783C625.509 60.2605 625.065 60.5023 624.621 60.6434C624.156 60.8046 623.732 60.8853 623.368 60.8853C622.318 60.8853 621.49 60.5829 620.904 59.9178C620.298 59.2729 619.995 58.386 619.995 57.2775C619.995 56.1287 620.298 55.2217 620.924 54.5566C621.55 53.8915 622.378 53.5488 623.388 53.5488C624.237 53.5488 625.105 53.831 625.893 54.3953L625.994 54.476V51.9163L625.974 51.8961C625.63 51.755 625.247 51.5938 624.722 51.493ZM633.387 51.4124C632.74 51.4124 632.134 51.6139 631.609 52.0372C631.165 52.4 630.862 52.924 630.599 53.5488H630.579V51.5938H627.953V62.7597H630.579V57.0558C630.579 56.0884 630.781 55.2822 631.225 54.6977C631.67 54.093 632.235 53.7907 632.922 53.7907C633.165 53.7907 633.407 53.8511 633.71 53.8915C633.993 53.9721 634.195 54.0527 634.336 54.1535L634.437 54.2341V51.6139L634.376 51.5938C634.195 51.4729 633.831 51.4124 633.387 51.4124ZM640.537 51.3519C638.699 51.3519 637.224 51.8961 636.194 52.9643C635.144 54.0325 634.639 55.5039 634.639 57.3581C634.639 59.0915 635.164 60.5023 636.174 61.5302C637.184 62.538 638.558 63.062 640.274 63.062C642.072 63.062 643.506 62.5178 644.536 61.4294C645.587 60.3411 646.092 58.8899 646.092 57.0961C646.092 55.3225 645.607 53.9116 644.617 52.8837C643.668 51.8558 642.274 51.3519 640.537 51.3519ZM642.638 59.938C642.153 60.5628 641.385 60.8651 640.436 60.8651C639.487 60.8651 638.719 60.5628 638.174 59.8977C637.628 59.2729 637.366 58.3659 637.366 57.217C637.366 56.0279 637.649 55.1209 638.174 54.476C638.719 53.831 639.467 53.5085 640.416 53.5085C641.345 53.5085 642.072 53.8108 642.597 54.4356C643.122 55.0604 643.405 55.9674 643.405 57.1566C643.365 58.3659 643.143 59.3132 642.638 59.938ZM651.949 56.2294C651.121 55.8868 650.596 55.6248 650.354 55.4031C650.152 55.2015 650.051 54.9194 650.051 54.5566C650.051 54.2542 650.172 53.9519 650.475 53.7504C650.778 53.5488 651.121 53.448 651.626 53.448C652.071 53.448 652.535 53.5287 652.979 53.6496C653.424 53.7705 653.828 53.9519 654.151 54.1938L654.252 54.2744V51.8155L654.191 51.7953C653.888 51.6744 653.484 51.5535 653 51.4527C652.515 51.3721 652.071 51.3318 651.707 51.3318C650.455 51.3318 649.424 51.6341 648.617 52.2992C647.809 52.924 647.425 53.7705 647.425 54.7581C647.425 55.2822 647.506 55.7457 647.687 56.1287C647.869 56.5116 648.132 56.8744 648.495 57.1767C648.859 57.4589 649.384 57.7814 650.111 58.0837C650.717 58.3457 651.182 58.5473 651.465 58.7085C651.747 58.8698 651.929 59.0511 652.071 59.1922C652.171 59.3535 652.232 59.555 652.232 59.817C652.232 60.5628 651.667 60.9256 650.515 60.9256C650.071 60.9256 649.606 60.8449 649.061 60.6636C648.516 60.4822 648.011 60.2201 647.586 59.9178L647.485 59.8372V62.3969L647.546 62.417C647.93 62.5984 648.394 62.7194 648.96 62.8605C649.525 62.9612 650.03 63.0418 650.475 63.0418C651.828 63.0418 652.939 62.7395 653.727 62.0744C654.535 61.4294 654.959 60.6031 654.959 59.5349C654.959 58.7891 654.757 58.124 654.313 57.6201C653.727 57.1364 653 56.6325 651.949 56.2294ZM661.887 51.3519C660.049 51.3519 658.574 51.8961 657.544 52.9643C656.514 54.0325 655.989 55.5039 655.989 57.3581C655.989 59.0915 656.514 60.5023 657.524 61.5302C658.534 62.538 659.908 63.062 661.624 63.062C663.422 63.062 664.856 62.5178 665.886 61.4294C666.937 60.3411 667.442 58.8899 667.442 57.0961C667.442 55.3225 666.957 53.9116 665.967 52.8837C665.018 51.8558 663.624 51.3519 661.887 51.3519ZM663.968 59.938C663.483 60.5628 662.715 60.8651 661.766 60.8651C660.796 60.8651 660.049 60.5628 659.504 59.8977C658.958 59.2729 658.696 58.3659 658.696 57.217C658.696 56.0279 658.978 55.1209 659.504 54.476C660.049 53.831 660.796 53.5085 661.746 53.5085C662.655 53.5085 663.402 53.8108 663.927 54.4356C664.452 55.0604 664.735 55.9674 664.735 57.1566C664.735 58.3659 664.472 59.3132 663.968 59.938ZM681.48 53.7504V51.5938H678.834V48.2884L678.753 48.3085L676.248 49.0542L676.188 49.0744V51.5938H672.229V50.1829C672.229 49.538 672.39 49.0341 672.673 48.7116C672.956 48.3891 673.38 48.2279 673.905 48.2279C674.269 48.2279 674.653 48.3085 675.077 48.4899L675.178 48.5504V46.2729L675.117 46.2527C674.754 46.1318 674.269 46.0511 673.643 46.0511C672.855 46.0511 672.168 46.2325 671.542 46.5349C670.916 46.8775 670.451 47.3411 670.108 47.9659C669.765 48.5705 669.583 49.2558 669.583 50.0418V51.5938H667.745V53.7302H669.583V62.7597H672.229V53.7504H676.188V59.4946C676.188 61.8527 677.299 63.0418 679.521 63.0418C679.884 63.0418 680.268 62.9814 680.631 62.9209C681.015 62.8403 681.298 62.7395 681.46 62.6589L681.48 62.6387V60.4822L681.379 60.5628C681.217 60.6636 681.076 60.7442 680.833 60.8046C680.631 60.8651 680.45 60.8853 680.308 60.8853C679.783 60.8853 679.42 60.7643 679.157 60.462C678.915 60.1798 678.793 59.7163 678.793 59.031V53.7504H681.48Z" fill="#737373"/>
<path d="M559.5 42H571.882V54.355H559.5V42Z" fill="#F25022"/>
<path d="M573.174 42H585.556V54.355H573.174V42Z" fill="#7FBA00"/>
<path d="M559.5 55.645H571.882V68.0001H559.5V55.645Z" fill="#00A4EF"/>
<path d="M573.174 55.645H585.556V68.0001H573.174V55.645Z" fill="#FFB900"/>
</g>
<g clip-path="url(#clip6_1_2258)">
<path d="M785.002 51.2479V52.7214H785.047C785.577 51.9325 786.457 51.0034 788.408 51.0034C789.926 51.0034 791.091 51.776 791.59 52.943H791.635C792.061 52.353 792.55 51.9064 793.097 51.5902C793.745 51.2153 794.466 51.0001 795.374 51.0001C797.429 51.0001 799.248 52.3367 799.248 55.7074V62.1001H796.115V56.1541C796.115 54.4459 795.499 53.4581 794.216 53.4581C793.277 53.4581 792.595 54.0514 792.335 54.7816C792.245 55.0326 792.203 55.3749 792.203 55.6618V62.1034H789.07V55.9128C789.07 54.4622 788.478 53.4549 787.213 53.4549C786.201 53.4549 785.567 54.2046 785.307 54.8468C785.196 55.1207 785.161 55.4369 785.161 55.7335V62.1001H782.025V51.2479H785.002ZM815.418 51.2479V53.2951H815.504C816.079 51.7304 817.445 51.0034 818.644 51.0034C818.945 51.0034 819.112 51.0262 819.354 51.0719V53.9145C819.067 53.8754 818.8 53.8363 818.426 53.8363C817.067 53.8363 816.121 54.5795 815.882 55.7433C815.83 55.9845 815.813 56.2453 815.813 56.5452V62.1034H812.597V51.2479H815.418ZM823.721 47.6522V51.0686H826.438V53.833H823.721V57.9111C823.721 59.2314 824.078 59.8703 825.138 59.8703C825.637 59.8703 826.004 59.8117 826.323 59.7367L826.365 62.0284C825.938 62.1784 825.031 62.3414 824.109 62.3414C823.024 62.3414 822.12 61.986 821.569 61.4351C820.938 60.8059 820.647 59.7758 820.647 58.3089V47.6522H823.721ZM779.842 62.1001H776.723V47.6522H779.842V62.1001ZM771.525 58.2241C771.525 58.4229 771.508 58.6316 771.449 58.8109C771.206 59.5639 770.378 60.1996 769.345 60.1996C768.482 60.1996 767.796 59.74 767.796 58.7652C767.796 57.2755 769.543 56.8615 771.528 56.8712V58.2241H771.525ZM774.64 55.6259C774.64 53.1647 773.525 51.0034 769.751 51.0034C767.814 51.0034 766.275 51.5152 765.436 51.9716L766.05 53.9471C766.816 53.4907 768.039 53.1158 769.196 53.1158C771.113 53.1126 771.425 54.1362 771.425 54.7914V54.9479C767.249 54.9414 764.612 56.3007 764.612 59.0717C764.612 60.7636 765.953 62.3479 768.288 62.3479C769.726 62.3479 770.926 61.81 771.646 60.9461H771.716C771.716 60.9461 772.194 62.8206 774.821 62.1034C774.682 61.321 774.637 60.4897 774.637 59.4889V55.6259H774.64ZM748.945 47.6522C749.267 49.1811 750.182 53.6211 750.182 53.6211C750.566 55.4467 750.92 57.3602 751.187 58.8728H751.235C751.495 57.2657 751.904 55.7433 752.341 53.8591L753.883 47.6522H757.296L758.738 54.0188C759.115 55.7889 759.417 57.1548 759.656 58.8011H759.701C759.961 57.1385 760.301 55.7172 760.671 53.8982L762.058 47.6522H765.332L761.274 62.1001C758.689 62.6315 757.698 61.6535 757.345 60.1018C756.991 58.5468 756.298 55.5901 756.298 55.5901C755.941 53.9699 755.664 52.829 755.47 51.1664H755.421C755.144 52.8127 754.853 53.9667 754.423 55.5868L752.722 62.1034C750.081 62.5989 749.166 61.8654 748.66 59.8736C748.224 58.1687 745.5 47.6555 745.5 47.6555H748.945V47.6522ZM807.399 58.2241C807.399 58.4229 807.381 58.6316 807.322 58.8109C807.08 59.5639 806.252 60.1996 805.219 60.1996C804.356 60.1996 803.67 59.74 803.67 58.7652C803.67 57.2755 805.416 56.8615 807.402 56.8712V58.2241H807.399ZM810.514 55.6259C810.514 53.1647 809.398 51.0034 805.624 51.0034C803.687 51.0034 802.149 51.5152 801.31 51.9716L801.923 53.9471C802.689 53.4907 803.913 53.1158 805.07 53.1158C806.983 53.1126 807.298 54.1362 807.298 54.7914V54.9479C803.126 54.9414 800.489 56.3007 800.489 59.0717C800.489 60.7636 801.833 62.3479 804.165 62.3479C805.6 62.3479 806.803 61.81 807.52 60.9461H807.593C807.593 60.9461 808.071 62.8206 810.698 62.1034C810.559 61.321 810.514 60.4897 810.514 59.4889V55.6259Z" fill="#041E42"/>
<path d="M839.08 57.1241C839.388 57.6517 839.367 58.2406 839.039 58.5096L833.367 62.4276C832.776 62.7646 831.892 62.3561 831.391 61.5017C830.887 60.6439 830.977 59.6874 831.567 59.3504L837.847 56.4705C838.241 56.3208 838.773 56.5965 839.08 57.1241ZM846.545 57.1241C846.856 56.5965 847.384 56.3242 847.778 56.4671L854.061 59.3469C854.652 59.6839 854.738 60.6405 854.237 61.4983C853.733 62.3527 852.845 62.7578 852.258 62.4242L846.586 58.5062C846.262 58.2406 846.237 57.6483 846.545 57.1241ZM842.811 59.2482C843.429 59.2482 843.937 59.5614 844.006 59.9733L844.617 66.7745C844.617 67.4485 843.819 68 842.814 68C841.813 68 841.011 67.4485 841.011 66.7745L841.619 59.9733C841.688 59.5614 842.196 59.2482 842.811 59.2482ZM846.586 51.4938L852.258 47.5724C852.845 47.2354 853.733 47.6405 854.237 48.4983C854.738 49.3561 854.652 50.3126 854.061 50.6496L847.778 53.5329C847.384 53.6758 846.852 53.4035 846.545 52.8759C846.237 52.3483 846.262 51.7594 846.586 51.4938ZM837.847 53.5329L831.567 50.6496C830.98 50.3126 830.89 49.3561 831.391 48.4983C831.892 47.6405 832.78 47.2354 833.367 47.5724L839.039 51.4938C839.367 51.756 839.388 52.3483 839.08 52.8759C838.773 53.4035 838.241 53.6758 837.847 53.5329ZM841.619 50.0267L841.011 43.2255C841.011 42.5515 841.809 42 842.814 42C843.819 42 844.617 42.5515 844.617 43.2255L844.006 50.0267C843.937 50.4352 843.429 50.7518 842.811 50.7518C842.196 50.7518 841.688 50.4352 841.619 50.0267ZM855.771 62.4004V62.2302H855.927C855.978 62.2302 856.013 62.2642 856.013 62.3153C856.013 62.3629 855.978 62.4004 855.927 62.4004H855.771ZM855.643 62.7101C855.643 62.7272 855.657 62.7442 855.678 62.7442H855.744C855.761 62.7442 855.778 62.7272 855.778 62.7101V62.5161H855.885L855.972 62.7203C855.978 62.734 855.989 62.7442 856.003 62.7442H856.082C856.106 62.7442 856.124 62.7203 856.113 62.6965C856.082 62.6352 856.051 62.5706 856.02 62.5059C856.072 62.4889 856.151 62.4378 856.151 62.3153C856.151 62.1859 856.044 62.111 855.937 62.111H855.678C855.661 62.111 855.643 62.128 855.643 62.1451V62.7101ZM855.364 62.4276C855.364 62.1519 855.592 61.9272 855.871 61.9272C856.151 61.9272 856.379 62.1485 856.379 62.4276C856.379 62.7033 856.155 62.928 855.871 62.928C855.588 62.928 855.364 62.7033 855.364 62.4276ZM855.243 62.4276C855.243 62.768 855.522 63.0471 855.871 63.0471C856.217 63.0471 856.5 62.768 856.5 62.4276C856.5 62.0872 856.217 61.8081 855.871 61.8081C855.522 61.8081 855.243 62.0872 855.243 62.4276Z" fill="#FFC124"/>
</g>
<g clip-path="url(#clip7_1_2258)">
<path d="M979.991 66.2817L986.663 58.8925L979.991 51.5022H987.03L990.335 55.0919L993.517 51.5022H1000.31L993.67 58.862L1000.4 66.2817H993.333L990.059 62.6625L986.815 66.2817H979.991Z" fill="#FF6600"/>
<path d="M979.991 48.1891H972.435V51.5022H979.991V56.4952H972.435V61.0782H979.991V66.2817H966.881V43H979.991V48.1891Z" fill="#FF6600"/>
<path d="M961.351 43V52.528H961.29C960.066 51.1408 958.536 50.6587 956.761 50.6587C953.125 50.6587 950.386 53.0951 949.425 56.3162C948.329 52.767 945.501 50.5922 941.308 50.5922C937.903 50.5922 935.215 52.0987 933.812 54.5536V51.5025H926.774V48.1898H934.454V43H920.5V66.2821H926.774V56.4952H933.027C932.841 57.2142 932.741 57.9839 932.741 58.7961C932.741 63.6527 936.505 67.0603 941.308 67.0603C945.348 67.0603 948.01 65.1911 949.418 61.7831H944.041C943.314 62.8069 942.762 63.111 941.308 63.111C939.622 63.111 938.169 61.661 938.169 59.9423H949.116C949.591 63.7998 952.639 67.1265 956.823 67.1265C958.627 67.1265 960.279 66.2515 961.29 64.7742H961.351V66.2814H966.881V43H961.351ZM938.343 56.5648C938.692 55.0861 939.856 54.1195 941.308 54.1195C942.907 54.1195 944.012 55.0562 944.302 56.5648C944.425 56.5648 938.343 56.5648 938.343 56.5648ZM957.995 62.7369C955.956 62.7369 954.689 60.8646 954.689 58.9096C954.689 56.8199 955.791 54.8104 957.995 54.8104C960.279 54.8104 961.19 56.8199 961.19 58.9096C961.189 60.8913 960.225 62.7369 957.995 62.7369Z" fill="#652C8F"/>
</g>
</g>
<path fill-rule="evenodd" clip-rule="evenodd" d="M1110 110H0V109H1110V110Z" fill="url(#paint1_linear_1_2258)"/>
</g>
<defs>
<linearGradient id="paint0_linear_1_2258" x1="0" y1="0" x2="1110" y2="1.00857" gradientUnits="userSpaceOnUse">
<stop stop-color="#C0CCDA" stop-opacity="0.1"/>
<stop offset="0.503785" stop-color="#C0CCDA" stop-opacity="0.6"/>
<stop offset="1" stop-color="#C0CCDA" stop-opacity="0.1"/>
</linearGradient>
<linearGradient id="paint1_linear_1_2258" x1="0" y1="109" x2="1110" y2="110.009" gradientUnits="userSpaceOnUse">
<stop stop-color="#C0CCDA" stop-opacity="0.1"/>
<stop offset="0.503785" stop-color="#C0CCDA" stop-opacity="0.6"/>
<stop offset="1" stop-color="#C0CCDA" stop-opacity="0.1"/>
</linearGradient>
<clipPath id="clip0_1_2258">
<rect width="1110" height="110" fill="white"/>
</clipPath>
<clipPath id="clip1_1_2258">
<rect width="891" height="60" fill="white" transform="translate(109.5 25)"/>
</clipPath>
<clipPath id="clip2_1_2258">
<rect width="90" height="28" fill="white" transform="translate(109.5 41)"/>
</clipPath>
<clipPath id="clip3_1_2258">
<rect width="84" height="24" fill="white" transform="translate(263.5 43)"/>
</clipPath>
<clipPath id="clip4_1_2258">
<rect width="84" height="28" fill="white" transform="translate(411.5 41)"/>
</clipPath>
<clipPath id="clip5_1_2258">
<rect width="122" height="26" fill="white" transform="translate(559.5 42)"/>
</clipPath>
<clipPath id="clip6_1_2258">
<rect width="111" height="26" fill="white" transform="translate(745.5 42)"/>
</clipPath>
<clipPath id="clip7_1_2258">
<rect width="80" height="24" fill="white" transform="translate(920.5 43)"/>
</clipPath>
</defs>
</svg>
